<svg xmlns="http://www.w3.org/2000/svg" xmlns:svg="http://www.w3.org/2000/svg" xmlns:xlink="http://www.w3.org/1999/xlink" id="svg2" width="128" height="128" version="1.0"><metadata id="metadata90"/><defs id="defs4"><linearGradient id="linearGradient2299" x1="76" x2="76" y1="105.3" y2="86" gradientTransform="matrix(0.9,0,0,0.9,3.5,9)" gradientUnits="userSpaceOnUse" xlink:href="#BlackTransparent"/><linearGradient id="BlackTransparent"><stop id="stop8" offset="0" stop-color="#000" stop-opacity="1"/><stop id="stop10" offset="1" stop-color="#000" stop-opacity="0"/></linearGradient><linearGradient id="WhiteTransparent"><stop id="stop13" offset="0" stop-color="#fff" stop-opacity="1"/><stop id="stop15" offset="1" stop-color="#fff" stop-opacity="0"/></linearGradient><linearGradient id="linearGradient6182" x1="0" x2="0" y1="21" y2="30" gradientUnits="userSpaceOnUse" xlink:href="#WhiteTransparent"/><linearGradient id="linearGradient6185" x1="0" x2="0" y1="71" y2="59" gradientUnits="userSpaceOnUse" xlink:href="#WhiteTransparent"/><linearGradient id="linearGradient6188" x1="0" x2="0" y1="52" y2="16" gradientUnits="userSpaceOnUse" xlink:href="#WhiteTransparent"/><linearGradient id="linearGradient6192" x1="0" x2="0" y1="35" y2="48" gradientUnits="userSpaceOnUse" xlink:href="#BlackTransparent"/><linearGradient id="linearGradient6197" x1="13" x2="13" y1="56" y2="102" gradientUnits="userSpaceOnUse" xlink:href="#BlackTransparent"/><linearGradient id="linearGradient6200" x1="0" x2="0" y1="78" y2="13.5" gradientUnits="userSpaceOnUse" xlink:href="#WhiteTransparent"/><linearGradient id="linearGradient6206" x1="0" x2="0" y1="66" y2="58" gradientUnits="userSpaceOnUse" xlink:href="#WhiteTransparent"/><linearGradient id="linearGradient6213" x1="22" x2="46" y1="0" y2="0" gradientUnits="userSpaceOnUse" xlink:href="#WhiteTransparent"/><linearGradient id="linearGradient6216" x1="96" x2="60" y1="0" y2="0" gradientUnits="userSpaceOnUse" xlink:href="#WhiteTransparent"/><clipPath id="clipoutline1" clipPathUnits="userSpaceOnUse"><path id="outline1" d="M 60.3,27.4 C 40.4,27.4 24.4,35 24.4,44 L 24.4,100.8 C 24.4,110 40.4,117.3 60.3,117.3 C 80,117.3 96,110 96,100.8 L 96,44 C 96,35 80,27.4 60.3,27.4 z"/></clipPath><clipPath id="clipoutline2" clipPathUnits="userSpaceOnUse"><path id="outline2" d="M 59.6,18 C 36.3,18 17.6,27.8 17,39.7 L 17,49.5 C 17,62 36.5,72 60.7,72 C 85,72 104.4,62 104.4,49.5 L 104.4,39.8 C 104.4,27.6 84.6,18 60.7,18 C 60.4,18 60,18 59.6,18 z"/></clipPath><filter id="ShadowBlur" x="0" y="0" filterUnits="userSpaceOnUse"><feGaussianBlur id="feGaussianBlur31" in="SourceAlpha" result="blur" stdDeviation="3"/></filter></defs><style id="style33" type="text/css">.specularity{opacity:.5}.high-specularity{opacity:.75}.shade{opacity:.5}.outline-big{stroke-width:16;stroke:none;opacity:0.;fill:none}.outline-small{stroke-width:8px;stroke:#000;opacity:1;fill:none}.stroke-highlight{fill:none;stroke:#fff;opacity:.3;stroke-width:9px;stroke-linejoin:round}.base-shadow{fill:#000;opacity:.4}.stroke-aluminium5{stroke:#555753}.aluminium2{fill:#d3d7cf}.aluminium4{fill:#888a85}</style><g id="g35"><g id="g37"><path id="path39" d="M 105.87119,105.00339 C 105.87119,115.76014 85.849382,124.49025 61.179662,124.49025 C 36.50994,124.49025 16.488137,115.76014 16.488137,105.00339 C 16.488137,94.246645 36.50994,85.516535 61.179662,85.516535 C 85.849382,85.516535 105.87119,94.246645 105.87119,105.00339 z" class="filter base-shadow" filter="url(#ShadowBlur)"/><g id="g41"><use id="use43" class="outline-big" xlink:href="#outline1"/><use id="use45" class="outline-small stroke-aluminium5" xlink:href="#outline1"/></g><path id="path47" fill="#888a85" d="M 60.4,30 C 40.6,30 24.7,37.6 24.7,46.7 L 24.7,100.7 C 24.7,109.8 40.6,117 60.4,117 C 80,117 96,109.8 96,100.7 L 96,46.7 C 96,37.6 80,30 60.4,30 z"/><path id="path49" fill="url(#linearGradient6216)" d="M 60.4,27.6 C 40.5,27.6 40.5,117 60.4,117 C 80,117 96,109.9 96,100.7 L 96,44 C 96,35 80,27.6 60.4,27.6 z" class="specularity"/><path id="path51" fill="url(#linearGradient6213)" d="M 42.4,58 L 24.7,49.7 L 24.7,101 C 24.7,106 32,112.7 42.5,114.7 L 42.4,58 z" class="high-specularity"/><path id="path53" fill="url(#linearGradient6197)" d="M 24.6,57.7 L 24.6,75.4 C 45.5,90.5 75.5,91 96,75.4 L 96,57.7 C 76,74 45,72.5 24.6,57.7 z" class="shade"/><use id="use55" class="stroke-highlight" clip-path="url(#clipoutline1)" xlink:href="#outline1"/></g><g id="g57"><g id="g59"><use id="use61" class="outline-big" xlink:href="#outline2"/><use id="use63" class="outline-small stroke-aluminium5" xlink:href="#outline2"/></g><path id="path65" d="M 60.7,18 C 85,18 104.4,28 104.4,40 L 104.4,43.5 C 104.4,56 85,66 60.7,66 C 36.5,66 17,56 17,43.5 L 17,40 C 17,28 36.5,18 60.7,18 z" class="aluminium2"/><path id="path67" d="M 60.7,59 C 85,59 104.4,52.6 104.4,39.4 L 104.4,49.5 C 104.4,62 85,72 60.7,72 C 36.5,72 17,62 17,49.5 L 17,39.4 C 17,47.3 36.5,59 60.7,59 z" class="aluminium4"/><path id="path69" fill="url(#linearGradient6188)" d="M 16.473476,36.525126 C 16.473476,47.925126 43.754757,54.06967 60.7,54.06967 C 78.352349,54.06967 104.39619,50.325126 104.39619,36.525126 L 104.4,39.883883 C 104.4,55.93437 75.000001,59.133883 60.700001,59.133883 C 46.900001,59.133883 16.381282,50.795495 16.381282,38.795495" opacity=".5"/><path id="path71" fill="url(#linearGradient6185)" d="M 61,59 C 33.7,59 4.5,46.6 26.5,62.7 C 34.7,68.7 46.7,71.7 61,71.7 C 75.4,71.7 87,68.7 95.7,62.7 C 117,47.5 88,59 61,59 z" class="specularity"/><use id="use73" class="stroke-highlight" clip-path="url(#clipoutline2)" xlink:href="#outline2"/><g id="g75"><path id="path77" fill="url(#linearGradient6192)" d="M 41.4,35.6 L 81.5,35.6 C 86,35.6 86,42.5 81.5,42.5 L 41.4,42.5 C 37,42.5 36.8,35.6 41.4,35.6 z" class="shade"/><path id="path79" fill="#000" d="M 61.6,19.3 C 43,19.3 41.5,25.3 41.5,31.6 L 41.5,38.4 C 41.5,41.3 49,40.7 49,38.4 L 49,36 C 49,31.6 53.5,30.5 61.6,30.5 C 69.7,30.5 74,31.6 74,36 L 74,38.4 C 74,40.7 81.6,40.7 81.6,38.4 L 81.6,31.6 C 81.6,25.3 80,19.3 61.6,19.3 z"/><path id="path81" fill="url(#linearGradient6182)" d="M 61.6,21.3 C 53.4,21.3 47,22.5 47,27.4 L 76,27.4 C 76,22.5 69.7,21.3 61.6,21.3 z" class="specularity"/></g></g><g id="g83"><path id="path85" fill="#000" d="M 32,83.6 L 32,99 C 32,105.9 40,106 40,99 L 40,83.6 C 40,78.3 32,77.9 32,83.6 z M 80,83.6 L 80,99 C 81.9,104.9 87.5,103.7 88,99 L 88,83.6 C 88,78.6 80.2,78.7 80,83.6 z M 47.4,87.7 L 47.4,106 C 47.4,112.3 55.9,111.7 56,106 L 56,87.7 C 56,82.3 47.5,82 47.4,87.7 z M 64,87.7 L 64,106 C 64,112.5 72.9,111.8 73,106 L 73,87.7 C 71.6,81.6 64.8,82.2 64,87.7 z" opacity=".5"/><path id="path87" fill="url(#linearGradient2299)" d="M 88,91 C 88,95.2 80,95 80,91 L 80,98.4 C 80,104 88,104.7 88,98.4 L 88,91 z M 32,91 L 32,98.4 C 32,106.4 40,106 40,98.4 L 40,91 C 40,95.9 32,95.6 32,91 z M 56,97.8 C 56,102.9 47.4,102 47.4,97.8 L 47.4,105.7 C 47.4,112.6 55.9,111.6 56,105.7 L 56,97.8 z M 73,97.8 C 73,103.6 64,102.7 64,97.8 L 64,105.7 C 64,112.8 73,112 73,105.7 L 73,97.8 z" opacity=".5"/></g></g></svg>